<?xml version="1.0" encoding="UTF-8" standalone="no"?>
<!-- Created with Inkscape (http://www.inkscape.org/) -->

<svg
   width="182.17203mm"
   height="86.083946mm"
   viewBox="0 0 182.17203 86.083946"
   version="1.1"
   id="svg1"
   xml:space="preserve"
   inkscape:version="1.3.1 (9b9bdc1480, 2023-11-25, custom)"
   sodipodi:docname="overview_image.svg"
   xmlns:inkscape="http://www.inkscape.org/namespaces/inkscape"
   xmlns:sodipodi="http://sodipodi.sourceforge.net/DTD/sodipodi-0.dtd"
   xmlns="http://www.w3.org/2000/svg"
   xmlns:svg="http://www.w3.org/2000/svg"><sodipodi:namedview
     id="namedview1"
     pagecolor="#ffffff"
     bordercolor="#000000"
     borderopacity="0.25"
     inkscape:showpageshadow="2"
     inkscape:pageopacity="0.0"
     inkscape:pagecheckerboard="0"
     inkscape:deskcolor="#d1d1d1"
     inkscape:document-units="mm"
     inkscape:zoom="1.2695011"
     inkscape:cx="322.17381"
     inkscape:cy="237.49488"
     inkscape:window-width="2494"
     inkscape:window-height="1526"
     inkscape:window-x="66"
     inkscape:window-y="37"
     inkscape:window-maximized="1"
     inkscape:current-layer="g2" /><defs
     id="defs1"><marker
       style="overflow:visible"
       id="marker10"
       refX="0"
       refY="0"
       orient="auto-start-reverse"
       inkscape:stockid="Triangle arrow"
       markerWidth="1"
       markerHeight="1"
       viewBox="0 0 1 1"
       inkscape:isstock="true"
       inkscape:collect="always"
       preserveAspectRatio="xMidYMid"><path
         transform="scale(0.5)"
         style="fill:context-stroke;fill-rule:evenodd;stroke:context-stroke;stroke-width:1pt"
         d="M 5.77,0 -2.88,5 V -5 Z"
         id="path10" /></marker><marker
       style="overflow:visible"
       id="marker9"
       refX="0"
       refY="0"
       orient="auto-start-reverse"
       inkscape:stockid="Triangle arrow"
       markerWidth="1"
       markerHeight="1"
       viewBox="0 0 1 1"
       inkscape:isstock="true"
       inkscape:collect="always"
       preserveAspectRatio="xMidYMid"><path
         transform="scale(0.5)"
         style="fill:context-stroke;fill-rule:evenodd;stroke:context-stroke;stroke-width:1pt"
         d="M 5.77,0 -2.88,5 V -5 Z"
         id="path9" /></marker><marker
       style="overflow:visible"
       id="Triangle"
       refX="0"
       refY="0"
       orient="auto-start-reverse"
       inkscape:stockid="Triangle arrow"
       markerWidth="1"
       markerHeight="1"
       viewBox="0 0 1 1"
       inkscape:isstock="true"
       inkscape:collect="always"
       preserveAspectRatio="xMidYMid"><path
         transform="scale(0.5)"
         style="fill:context-stroke;fill-rule:evenodd;stroke:context-stroke;stroke-width:1pt"
         d="M 5.77,0 -2.88,5 V -5 Z"
         id="path135" /></marker><marker
       style="overflow:visible"
       id="marker10-1"
       refX="0"
       refY="0"
       orient="auto-start-reverse"
       inkscape:stockid="Triangle arrow"
       markerWidth="1"
       markerHeight="1"
       viewBox="0 0 1 1"
       inkscape:isstock="true"
       inkscape:collect="always"
       preserveAspectRatio="xMidYMid"><path
         transform="scale(0.5)"
         style="fill:context-stroke;fill-rule:evenodd;stroke:context-stroke;stroke-width:1pt"
         d="M 5.77,0 -2.88,5 V -5 Z"
         id="path10-8" /></marker></defs><g
     inkscape:label="Layer 1"
     inkscape:groupmode="layer"
     id="layer1"
     transform="translate(-4.5591407,-122.10412)"><g
       id="g1"
       transform="matrix(0.26458333,0,0,0.26458333,23.927625,122.26969)"><path
         d="m -67.182198,38.910897 -5.4805,-9.5039 c -1.1133,-1.9297 -0.45312,-4.3945 1.4727,-5.5078 l 2.3984,-1.3984 0.0039,-0.0039 c 1.9258,-1.1094 4.3867,-0.44922 5.5039,1.4766 l 3.3555,5.8164 2.0781,3.6016 0.0039,-24.2499998 c 0,-2.2344 1.9414,-3.957 4.1797,-3.957 h 1.9141 v -1.8438 c 0,-2.2617 1.9727,-3.96089999 4.1797,-3.96089999 H 0.50921203 c 0.37109,-0.035157 0.73827997,0.097656 0.99999997,0.36719 l 17.309,16.04299979 c 0.01172,0 0.01563,0.01953 0.02734,0.02734 l 0.01563,0.01172 0.01172,0.01172 h 0.0039 c 0.21094,0.21875 0.32422,0.51172 0.32031,0.81641 v 65.73 c 0,2.2344 -1.9375,3.9609 -4.1797,3.9609 h -1.9023 v 1.8398 c -0.0078,1.0781 -0.46875,2.1016 -1.2656,2.8281 -0.79688,0.73047 -1.8398,1.1367 -2.9219,1.1328 h -62.59 c -2.2266,0 -4.1797,-1.7227 -4.1797,-3.9609 l 0.0039,-33.105 z m 1.4727,-2.2383 5.2422,-3.0273 -0.92969,-1.6016 -5.2383,3.0156 z m 29.012,33.352 c 0.08594,0.14844 0.14062,0.3125 0.16016,0.48047 l 0.33984,2.2148 24.305,0.0039 c 0.30469,0 0.60938,-0.02344 0.91406,-0.07422 v -4.8359 c -0.30469,-0.05469 -0.60938,-0.07812 -0.91406,-0.07422 h -26.125 z m -1.9531,2.5117 -4.2852,2.4766 5.3359,4.2852 -0.78906,-5.0859 h 0.0039 c -0.01953,-0.07031 -0.03125,-0.14062 -0.03516,-0.21094 z m -7.1211,3.2734 0.0039,-0.0039 c -0.12891,-0.09766 -0.23437,-0.21875 -0.32031,-0.35938 v -0.02344 l -3.2617,-5.6445 v 12.602 c 0,0.90234 0.85156,1.5586 1.7812,1.5586 h 62.578 c 0.92969,0 1.7812,-0.65625 1.7812,-1.5586 v -64.508 h -11.977 c -2.875,0 -5.38669997,-2.2109 -5.38669997,-5.0781 V 1.7673772 H -47.573108 c -0.91797,0 -1.7812,0.65234 -1.7812,1.5625 V 48.095877 l 9.9609,17.254 0.14063,-0.01172 h 27.359 c 1.3242,0 3.3125,0.33594 3.3125,1.832 v 6.1289 c 0,1.4922 -1.9844,1.832 -3.3125,1.832 l -23.934,-0.0039 1.0469,6.8008 h 0.0039 c 0.09375,0.49219 -0.125,0.99219 -0.55469,1.2539 -0.42578,0.26172 -0.97266,0.22656 -1.3672,-0.08203 z m -9.668,-38.254 3.6875,6.3828 V 7.5834972 h -1.9062 c -0.92969,0 -1.7812,0.66016 -1.7812,1.5586 z m 3.6875,28.07 -3.6875,-6.3828 0.0039,28.945 c 0,0.92578 0.875,1.5625 1.7812,1.5625 h 62.602 -0.0039 c 0.47656,0.0078 0.93359,-0.16797 1.2852,-0.48828 0.30859,-0.27344 0.48438,-0.66406 0.48828,-1.0742 v -1.8398 h -58.293 c -2.2344,0 -4.1797,-1.7266 -4.1797,-3.9609 z m 10.688,-29.363 c -0.66406,0 -1.1992,-0.53906 -1.1992,-1.1992 0,-0.66406 0.53516,-1.2031 1.1992,-1.2031 h 50.742 c 0.66406,0 1.1992,0.53906 1.1992,1.2031 0,0.66016 -0.53516,1.1992 -1.1992,1.1992 z m 51.938,8.1836 v 27.367 c 0,1.5039 -0.72656,3.3125 -2.2891,3.3125 h -10.586 c -1.5664,0 -2.293,-1.8086 -2.293,-3.3125 l 0.0039,-27.367 c 0,-1.5078 0.72656,-3.3086 2.293,-3.3086 h 10.586 c 1.5625,0 2.2891,1.8008 2.2891,3.3086 z m -50.129,-33.844 h 27.359 c 1.5078,0 3.3125,0.72266 3.3125,2.2891 v 10.586 c 0,1.5703 -1.8008,2.2969 -3.3125,2.2969 h -27.359 c -1.5078,0 -3.3086,-0.72656 -3.3086,-2.2969 v -10.582 c 0,-1.5664 1.8008,-2.2891 3.3086,-2.2891 z m -1.8125,46.641 c -0.66406,0 -1.1992,-0.53516 -1.1992,-1.1992 0,-0.66406 0.53516,-1.1992 1.1992,-1.1992 h 29.754 c 0.66016,0 1.1992,0.53516 1.1992,1.1992 0,0.66406 -0.53906,1.1992 -1.1992,1.1992 z m 0,-10.488 c -0.66406,0 -1.1992,-0.53516 -1.1992,-1.1992 0,-0.66404 0.53516,-1.1992 1.1992,-1.1992 h 29.754 c 0.66016,0 1.1992,0.53516 1.1992,1.1992 0,0.66404 -0.53906,1.1992 -1.1992,1.1992 z"
         id="path1" /><path
         d="m 184.62514,38.910895 -5.4805,-9.5039 c -1.1133,-1.9297 -0.45312,-4.3945 1.4727,-5.5078 l 2.3984,-1.3984 0.004,-0.0039 c 1.9258,-1.1094 4.3867,-0.44922 5.5039,1.4766 l 3.3555,5.8164 2.0781,3.6016 0.004,-24.2499994 c 0,-2.2344 1.9414,-3.957 4.1797,-3.957 h 1.9141 V 3.3406959 c 0,-2.2617 1.9727,-3.96090004 4.1797,-3.96090004 h 48.082 c 0.37109,-0.03516 0.73828,0.09766 1,0.36719 l 17.309,16.04299914 c 0.0117,0 0.0156,0.01953 0.0273,0.02734 l 0.0156,0.01172 0.0117,0.01172 h 0.004 c 0.21094,0.21875 0.32422,0.51172 0.32031,0.81641 v 65.73 c 0,2.2344 -1.9375,3.9609 -4.1797,3.9609 h -1.9023 v 1.839804 c -0.008,1.0781 -0.46875,2.1016 -1.2656,2.8281 -0.79688,0.73047 -1.8398,1.1367 -2.9219,1.1328 h -62.59 c -2.2266,0 -4.1797,-1.7227 -4.1797,-3.9609 l 0.004,-33.105004 z m 1.4727,-2.2383 5.2422,-3.0273 -0.92969,-1.6016 -5.2383,3.0156 z m 29.012,33.352 c 0.0859,0.14844 0.14062,0.3125 0.16016,0.48047 l 0.33984,2.2148 24.305,0.0039 c 0.30469,0 0.60938,-0.02344 0.91406,-0.07422 v -4.8359 c -0.30469,-0.05469 -0.60938,-0.07812 -0.91406,-0.07422 h -26.125 z m -1.9531,2.5117 -4.2852,2.4766 5.3359,4.2852 -0.78906,-5.0859 h 0.004 c -0.0195,-0.07031 -0.0312,-0.14062 -0.0352,-0.21094 z m -7.1211,3.2734 0.004,-0.0039 c -0.12891,-0.09766 -0.23437,-0.21875 -0.32031,-0.35938 v -0.02344 l -3.2617,-5.6445 v 12.602 c 0,0.90234 0.85156,1.5586 1.7812,1.5586 h 62.578 c 0.92969,0 1.7812,-0.65625 1.7812,-1.5586 v -64.508 h -11.977 c -2.875,0 -5.3867,-2.2109 -5.3867,-5.0781 V 1.7673759 h -47 c -0.91797,0 -1.7812,0.65234 -1.7812,1.5625 V 48.095875 l 9.9609,17.254 0.14063,-0.01172 h 27.359 c 1.3242,0 3.3125,0.33594 3.3125,1.832 v 6.1289 c 0,1.4922 -1.9844,1.832 -3.3125,1.832 l -23.934,-0.0039 1.0469,6.8008 h 0.004 c 0.0937,0.49219 -0.125,0.99219 -0.55469,1.2539 -0.42578,0.26172 -0.97266,0.22656 -1.3672,-0.08203 z m -9.668,-38.254 3.6875,6.3828 V 7.5834956 h -1.9062 c -0.92969,0 -1.7812,0.66016 -1.7812,1.5586 z m 3.6875,28.07 -3.6875,-6.3828 0.004,28.945004 c 0,0.92578 0.875,1.5625 1.7812,1.5625 h 62.602 -0.004 c 0.47656,0.008 0.93359,-0.16797 1.2852,-0.48828 0.30859,-0.27344 0.48438,-0.66406 0.48828,-1.0742 v -1.839804 h -58.293 c -2.2344,0 -4.1797,-1.7266 -4.1797,-3.9609 z m 10.688,-29.363 c -0.66406,0 -1.1992,-0.53906 -1.1992,-1.1992 0,-0.66406 0.53516,-1.2031 1.1992,-1.2031 h 50.742 c 0.66406,0 1.1992,0.53906 1.1992,1.2031 0,0.66016 -0.53516,1.1992 -1.1992,1.1992 z m 51.938,8.1836 v 27.367 c 0,1.5039 -0.72656,3.3125 -2.2891,3.3125 h -10.586 c -1.5664,0 -2.293,-1.8086 -2.293,-3.3125 l 0.004,-27.367 c 0,-1.5078 0.72656,-3.3086 2.293,-3.3086 h 10.586 c 1.5625,0 2.2891,1.8008 2.2891,3.3086 z m -50.129,-33.844 h 27.359 c 1.5078,0 3.3125,0.72266 3.3125,2.2891 v 10.586 c 0,1.5703 -1.8008,2.2969 -3.3125,2.2969 h -27.359 c -1.5078,0 -3.3086,-0.72656 -3.3086,-2.2969 v -10.582 c 0,-1.5664 1.8008,-2.2891 3.3086,-2.2891 z m -1.8125,46.641 c -0.66406,0 -1.1992,-0.53516 -1.1992,-1.1992 0,-0.66406 0.53516,-1.1992 1.1992,-1.1992 h 29.754 c 0.66016,0 1.1992,0.53516 1.1992,1.1992 0,0.66406 -0.53906,1.1992 -1.1992,1.1992 z m 0,-10.488 c -0.66406,0 -1.1992,-0.53516 -1.1992,-1.1992 0,-0.66404 0.53516,-1.1992 1.1992,-1.1992 h 29.754 c 0.66016,0 1.1992,0.53516 1.1992,1.1992 0,0.66404 -0.53906,1.1992 -1.1992,1.1992 z"
         id="path1-3" /><path
         d="m 436.43267,38.910897 -5.4805,-9.5039 c -1.1133,-1.9297 -0.45312,-4.3945 1.4727,-5.5078 l 2.3984,-1.3984 0.004,-0.0039 c 1.9258,-1.1094 4.3867,-0.44922 5.5039,1.4766 l 3.3555,5.8164 2.0781,3.6016 0.004,-24.2499995 c 0,-2.2344002 1.9414,-3.9570002 4.1797,-3.9570002 h 1.9141 v -1.8438 c 0,-2.2617 1.9727,-3.96089997 4.1797,-3.96089997 h 48.082 c 0.37109,-0.035157 0.73828,0.097656 1,0.36719 l 17.309,16.04299967 c 0.0117,0 0.0156,0.01953 0.0273,0.02734 l 0.0156,0.01172 0.0117,0.01172 h 0.004 c 0.21094,0.21875 0.32422,0.51172 0.32031,0.81641 v 65.73 c 0,2.2344 -1.9375,3.9609 -4.1797,3.9609 h -1.9023 v 1.8398 c -0.008,1.0781 -0.46875,2.1016 -1.2656,2.8281 -0.79688,0.73047 -1.8398,1.1367 -2.9219,1.1328 h -62.59 c -2.2266,0 -4.1797,-1.7227 -4.1797,-3.9609 l 0.004,-33.105 z m 1.4727,-2.2383 5.2422,-3.0273 -0.92969,-1.6016 -5.2383,3.0156 z m 29.012,33.352 c 0.0859,0.14844 0.14062,0.3125 0.16016,0.48047 l 0.33984,2.2148 24.305,0.0039 c 0.30469,0 0.60938,-0.02344 0.91406,-0.07422 v -4.8359 c -0.30469,-0.05469 -0.60938,-0.07812 -0.91406,-0.07422 h -26.125 z m -1.9531,2.5117 -4.2852,2.4766 5.3359,4.2852 -0.78906,-5.0859 h 0.004 c -0.0195,-0.07031 -0.0312,-0.14062 -0.0352,-0.21094 z m -7.1211,3.2734 0.004,-0.0039 c -0.12891,-0.09766 -0.23437,-0.21875 -0.32031,-0.35938 v -0.02344 l -3.2617,-5.6445 v 12.602 c 0,0.90234 0.85156,1.5586 1.7812,1.5586 h 62.578 c 0.92969,0 1.7812,-0.65625 1.7812,-1.5586 v -64.508 h -11.977 c -2.875,0 -5.3867,-2.2109 -5.3867,-5.0781 V 1.7673773 h -47 c -0.91797,0 -1.7812,0.65234 -1.7812,1.5625 V 48.095877 l 9.9609,17.254 0.14063,-0.01172 h 27.359 c 1.3242,0 3.3125,0.33594 3.3125,1.832 v 6.1289 c 0,1.4922 -1.9844,1.832 -3.3125,1.832 l -23.934,-0.0039 1.0469,6.8008 h 0.004 c 0.0937,0.49219 -0.125,0.99219 -0.55469,1.2539 -0.42578,0.26172 -0.97266,0.22656 -1.3672,-0.08203 z m -9.668,-38.254 3.6875,6.3828 V 7.5834973 h -1.9062 c -0.92969,0 -1.7812,0.66016 -1.7812,1.5586002 z m 3.6875,28.07 -3.6875,-6.3828 0.004,28.945 c 0,0.92578 0.875,1.5625 1.7812,1.5625 h 62.602 -0.004 c 0.47656,0.0078 0.93359,-0.16797 1.2852,-0.48828 0.30859,-0.27344 0.48438,-0.66406 0.48828,-1.0742 v -1.8398 h -58.293 c -2.2344,0 -4.1797,-1.7266 -4.1797,-3.9609 z m 10.688,-29.363 c -0.66406,0 -1.1992,-0.53906 -1.1992,-1.1992 0,-0.66406 0.53516,-1.2031 1.1992,-1.2031 h 50.742 c 0.66406,0 1.1992,0.53906 1.1992,1.2031 0,0.66016 -0.53516,1.1992 -1.1992,1.1992 z m 51.938,8.1836 v 27.367 c 0,1.5039 -0.72656,3.3125 -2.2891,3.3125 h -10.586 c -1.5664,0 -2.293,-1.8086 -2.293,-3.3125 l 0.004,-27.367 c 0,-1.5078 0.72656,-3.3086 2.293,-3.3086 h 10.586 c 1.5625,0 2.2891,1.8008 2.2891,3.3086 z m -50.129,-33.844 h 27.359 c 1.5078,0 3.3125,0.72266 3.3125,2.2891 v 10.586 c 0,1.5703 -1.8008,2.2969 -3.3125,2.2969 h -27.359 c -1.5078,0 -3.3086,-0.72656 -3.3086,-2.2969 v -10.582 c 0,-1.5664 1.8008,-2.2891 3.3086,-2.2891 z m -1.8125,46.641 c -0.66406,0 -1.1992,-0.53516 -1.1992,-1.1992 0,-0.66406 0.53516,-1.1992 1.1992,-1.1992 h 29.754 c 0.66016,0 1.1992,0.53516 1.1992,1.1992 0,0.66406 -0.53906,1.1992 -1.1992,1.1992 z m 0,-10.488 c -0.66406,0 -1.1992,-0.53516 -1.1992,-1.1992 0,-0.66404 0.53516,-1.1992 1.1992,-1.1992 h 29.754 c 0.66016,0 1.1992,0.53516 1.1992,1.1992 0,0.66404 -0.53906,1.1992 -1.1992,1.1992 z"
         id="path1-1" /><g
         id="g2"
         transform="matrix(1.4526329,0,0,1.4526329,21.061124,123.94258)"><path
           d="m 69.242,36 c 0,-1.625 1.3164,-2.9414 2.9414,-2.9414 1.625,0 2.9414,1.3164 2.9414,2.9414 0,1.625 -1.3164,2.9414 -2.9414,2.9414 -1.625,0 -2.9414,-1.3164 -2.9414,-2.9414 z m 2.9453,23.793 c 1.625,0 2.9414,-1.3164 2.9414,-2.9414 0,-1.625 -1.3164,-2.9414 -2.9414,-2.9414 -1.625,0 -2.9414,1.3164 -2.9414,2.9414 0,1.625 1.3164,2.9414 2.9414,2.9414 z m 0,14.965 c -1.625,0 -2.9414,1.3164 -2.9414,2.9414 0,1.625 1.3164,2.9414 2.9414,2.9414 1.625,0 2.9414,-1.3164 2.9414,-2.9414 0,-1.625 -1.3164,-2.9414 -2.9414,-2.9414 z m 11.848,-55.625 v 61.73 c 0,7.3086 -17.121,11.133 -34.035,11.133 -16.914,0 -34.035,-3.8242 -34.035,-11.133 V 19.133 C 15.9653,11.8244 33.0863,8 50.0003,8 c 16.914,0 34.035,3.8242 34.035,11.133 z m -4,26.195 c -6.0469,3.6953 -18.09,5.6055 -30.035,5.6055 -11.945,0 -23.988,-1.9102 -30.035,-5.6055 v 15.137 c 0,2.4219 10.602,7.1328 30.035,7.1328 19.433,0 30.035,-4.7109 30.035,-7.1328 z m 0,-20.664 c -6.0469,3.6953 -18.09,5.6055 -30.035,5.6055 -11.945,0 -23.988,-1.9102 -30.035,-5.6055 v 15.137 c 0,2.4219 10.602,7.1328 30.035,7.1328 19.433,0 30.035,-4.7109 30.035,-7.1328 z m -60.07,-5.5312 c 0,2.4219 10.602,7.1328 30.035,7.1328 19.433,0 30.035,-4.7109 30.035,-7.1328 0,-2.4219 -10.602,-7.1328 -30.035,-7.1328 -19.433,0 -30.035,4.7109 -30.035,7.1328 z m 60.07,61.734 v -14.871 c -6.0469,3.6953 -18.09,5.6055 -30.035,5.6055 -11.945,0 -23.988,-1.9102 -30.035,-5.6055 v 14.871 c 0,2.4219 10.602,7.1328 30.035,7.1328 19.433,0 30.035,-4.7109 30.035,-7.1328 z"
           id="path1-2" /><text
           xml:space="preserve"
           style="font-style:normal;font-variant:normal;font-weight:bold;font-stretch:semi-condensed;font-size:12.8503px;font-family:'DejaVu Sans';-inkscape-font-specification:'DejaVu Sans, Bold Semi-Condensed';font-variant-ligatures:normal;font-variant-caps:normal;font-variant-numeric:normal;font-variant-east-asian:normal;fill:#000000;fill-opacity:1;stroke:none;stroke-width:1.30092;stroke-opacity:1"
           x="-30.033199"
           y="-6.8973737"
           id="text3"><tspan
             sodipodi:role="line"
             id="tspan3"
             style="font-style:normal;font-variant:normal;font-weight:bold;font-stretch:semi-condensed;font-size:12.8503px;font-family:'DejaVu Sans';-inkscape-font-specification:'DejaVu Sans, Bold Semi-Condensed';font-variant-ligatures:normal;font-variant-caps:normal;font-variant-numeric:normal;font-variant-east-asian:normal;text-align:center;text-anchor:middle;stroke-width:1.30092"
             x="-30.033199"
             y="-6.8973737">Data</tspan><tspan
             sodipodi:role="line"
             style="font-style:normal;font-variant:normal;font-weight:bold;font-stretch:semi-condensed;font-size:12.8503px;font-family:'DejaVu Sans';-inkscape-font-specification:'DejaVu Sans, Bold Semi-Condensed';font-variant-ligatures:normal;font-variant-caps:normal;font-variant-numeric:normal;font-variant-east-asian:normal;text-align:center;text-anchor:middle;stroke-width:1.30092"
             x="-30.033199"
             y="9.1655025"
             id="tspan4">Ingest</tspan></text><path
           style="fill:none;fill-opacity:1;stroke:#000000;stroke-width:1.30092;stroke-dasharray:none;stroke-opacity:1;marker-end:url(#Triangle)"
           d="m -30.686875,16.156869 c 0,0 0.588853,11.522613 3.110366,16.530486 3.190272,6.33607 8.161018,12.350273 14.4584,15.616251 5.9674191,3.09485 19.988564,2.674139 19.988564,2.674139"
           id="path4"
           sodipodi:nodetypes="caac" /><path
           style="fill:none;fill-opacity:1;stroke:#000000;stroke-width:1.30092;stroke-opacity:1;marker-end:url(#marker9)"
           d="M 92.037741,49.998 H 139.65166"
           id="path5" /><path
           style="fill:none;fill-opacity:1;stroke:#000000;stroke-width:1.30092;stroke-opacity:1;marker-end:url(#marker10)"
           d="m 143.26878,-13.310807 27.28538,38.851813"
           id="path6"
           sodipodi:nodetypes="cc" /><path
           style="fill:none;fill-opacity:1;stroke:#000000;stroke-width:1.30092;stroke-opacity:1;marker-end:url(#marker10-1)"
           d="m 316.69823,-13.310807 27.28538,38.851812"
           id="path6-2"
           sodipodi:nodetypes="cc" /><text
           xml:space="preserve"
           style="font-style:normal;font-variant:normal;font-weight:bold;font-stretch:semi-condensed;font-size:12.8503px;font-family:'DejaVu Sans';-inkscape-font-specification:'DejaVu Sans, Bold Semi-Condensed';font-variant-ligatures:normal;font-variant-caps:normal;font-variant-numeric:normal;font-variant-east-asian:normal;text-align:center;text-anchor:middle;fill:none;fill-opacity:1;stroke:#000000;stroke-width:1.30092;stroke-opacity:1"
           x="368.46185"
           y="54.788628"
           id="text6"><tspan
             sodipodi:role="line"
             id="tspan6"
             style="font-style:normal;font-variant:normal;font-weight:bold;font-stretch:semi-condensed;font-size:12.8503px;font-family:'DejaVu Sans';-inkscape-font-specification:'DejaVu Sans, Bold Semi-Condensed';font-variant-ligatures:normal;font-variant-caps:normal;font-variant-numeric:normal;font-variant-east-asian:normal;fill:#000000;fill-opacity:1;stroke:none;stroke-width:1.30092"
             x="368.46185"
             y="54.788628">Prediction</tspan></text><path
           style="fill:none;fill-opacity:1;stroke:#000000;stroke-width:1.30092;stroke-opacity:1;marker-end:url(#marker9)"
           d="m 244.49828,49.998 h 83.85646"
           id="path7" /><path
           style="fill:none;fill-opacity:1;stroke:#000000;stroke-width:1.30092;stroke-opacity:1;marker-end:url(#marker9)"
           d="m 367.23125,62.304022 c 0,0 -35.01689,42.791778 -58.79658,55.453428 -26.04979,13.87037 -56.88799,17.91891 -86.35639,19.52903 -26.11645,1.42698 -52.56489,-2.62067 -77.9637,-8.86608 -23.663,-5.81859 -68.18327,-26.36634 -68.18327,-26.36634"
           id="path8"
           sodipodi:nodetypes="caaac" /><text
           xml:space="preserve"
           style="font-style:normal;font-variant:normal;font-weight:bold;font-stretch:semi-condensed;font-size:12.8503px;font-family:'DejaVu Sans';-inkscape-font-specification:'DejaVu Sans, Bold Semi-Condensed';font-variant-ligatures:normal;font-variant-caps:normal;font-variant-numeric:normal;font-variant-east-asian:normal;text-align:center;text-anchor:middle;fill:none;fill-opacity:1;stroke:#000000;stroke-width:1.30092;stroke-opacity:1"
           x="221.00616"
           y="105.43884"
           id="text8"><tspan
             sodipodi:role="line"
             id="tspan8"
             style="font-style:normal;font-variant:normal;font-weight:bold;font-stretch:semi-condensed;font-size:12.8503px;font-family:'DejaVu Sans';-inkscape-font-specification:'DejaVu Sans, Bold Semi-Condensed';font-variant-ligatures:normal;font-variant-caps:normal;font-variant-numeric:normal;font-variant-east-asian:normal;fill:#000000;fill-opacity:1;stroke:none;stroke-width:1.30092"
             x="221.00616"
             y="105.43884">New Ingest</tspan><tspan
             sodipodi:role="line"
             style="font-style:normal;font-variant:normal;font-weight:bold;font-stretch:semi-condensed;font-size:12.8503px;font-family:'DejaVu Sans';-inkscape-font-specification:'DejaVu Sans, Bold Semi-Condensed';font-variant-ligatures:normal;font-variant-caps:normal;font-variant-numeric:normal;font-variant-east-asian:normal;fill:#000000;fill-opacity:1;stroke:none;stroke-width:1.30092"
             x="221.00616"
             y="121.50172"
             id="tspan9">Targets</tspan></text><text
           xml:space="preserve"
           style="font-style:normal;font-variant:normal;font-weight:bold;font-stretch:semi-condensed;font-size:12.8503px;font-family:'DejaVu Sans';-inkscape-font-specification:'DejaVu Sans, Bold Semi-Condensed';font-variant-ligatures:normal;font-variant-caps:normal;font-variant-numeric:normal;font-variant-east-asian:normal;text-align:center;text-anchor:middle;fill:#000000;fill-opacity:1;stroke:none;stroke-width:1.30092;stroke-dasharray:none;stroke-opacity:1"
           x="207.8168"
           y="-57.061054"
           id="text10"><tspan
             sodipodi:role="line"
             id="tspan10"
             style="font-style:normal;font-variant:normal;font-weight:bold;font-stretch:semi-condensed;font-size:12.8503px;font-family:'DejaVu Sans';-inkscape-font-specification:'DejaVu Sans, Bold Semi-Condensed';font-variant-ligatures:normal;font-variant-caps:normal;font-variant-numeric:normal;font-variant-east-asian:normal;stroke-width:1.30092"
             x="207.8168"
             y="-57.061054">Labelled</tspan><tspan
             sodipodi:role="line"
             style="font-style:normal;font-variant:normal;font-weight:bold;font-stretch:semi-condensed;font-size:12.8503px;font-family:'DejaVu Sans';-inkscape-font-specification:'DejaVu Sans, Bold Semi-Condensed';font-variant-ligatures:normal;font-variant-caps:normal;font-variant-numeric:normal;font-variant-east-asian:normal;stroke-width:1.30092"
             x="207.8168"
             y="-40.99818"
             id="tspan11">Articles</tspan></text><text
           xml:space="preserve"
           style="font-style:normal;font-variant:normal;font-weight:bold;font-stretch:semi-condensed;font-size:12.8503px;font-family:'DejaVu Sans';-inkscape-font-specification:'DejaVu Sans, Bold Semi-Condensed';font-variant-ligatures:normal;font-variant-caps:normal;font-variant-numeric:normal;font-variant-east-asian:normal;text-align:center;text-anchor:middle;fill:#000000;fill-opacity:1;stroke:none;stroke-width:1.30092;stroke-dasharray:none;stroke-opacity:1"
           x="379.79843"
           y="-57.061054"
           id="text10-6"><tspan
             sodipodi:role="line"
             style="font-style:normal;font-variant:normal;font-weight:bold;font-stretch:semi-condensed;font-size:12.8503px;font-family:'DejaVu Sans';-inkscape-font-specification:'DejaVu Sans, Bold Semi-Condensed';font-variant-ligatures:normal;font-variant-caps:normal;font-variant-numeric:normal;font-variant-east-asian:normal;stroke-width:1.30092"
             x="379.79843"
             y="-57.061054"
             id="tspan11-6">Unknown</tspan><tspan
             sodipodi:role="line"
             style="font-style:normal;font-variant:normal;font-weight:bold;font-stretch:semi-condensed;font-size:12.8503px;font-family:'DejaVu Sans';-inkscape-font-specification:'DejaVu Sans, Bold Semi-Condensed';font-variant-ligatures:normal;font-variant-caps:normal;font-variant-numeric:normal;font-variant-east-asian:normal;stroke-width:1.30092"
             x="379.79843"
             y="-40.998177"
             id="tspan12">Articles</tspan></text><g
           id="g12"
           transform="matrix(0.68840518,0,0,0.68840518,170.22111,4.2211481)"
           inkscape:label="gears"><path
             d="m -9.6793732,86.495136 1.9210624,4.986153 -5.6512092,7.370111 6.7314832,7.73724 8.077807,-4.56576 4.6721512,2.58612 0.4097413,9.28041 10.1318263,1.60707 3.256624,-8.68974 5.257515,-1.03766 6.268587,6.85381 8.785502,-5.28939 -3.091654,-8.743 3.363153,-4.166616 9.211209,1.207946 3.336453,-9.684868 -8.008604,-4.725416 0.191562,-8.854705 -3.107593,1.990129 0.138351,8.498201 7.380737,4.331586 -1.841233,5.353282 -8.482263,-1.101512 -5.358595,6.593077 2.852305,8.077806 -4.837121,2.92669 -5.789615,-6.31641 -8.354483,1.61769 -2.995887,8.02454 -5.5980811,-0.88334 -0.3831363,-8.55664 -7.42324,-4.129294 -7.4499403,4.209114 -3.7196573,-4.262379 5.2148765,-6.795373 -3.0491518,-7.928775 -8.4024337,-1.569735 -0.111747,-5.667284 8.3651083,-1.851859 2.7670273,-8.035169 -5.4490496,-6.593077 3.5653132,-4.416727 7.6041484,3.953694 7.2742085,-4.374088 0.069176,-8.567404 5.5554419,-1.080233 3.283324,7.902211 8.391809,1.335658 2.192425,-2.559555 -8.583343,-1.293087 -3.554687,-8.572717 -10.0679356,1.95294 -0.095781,9.285725 -4.58700972,2.756401 -8.23215138,-4.294259 -6.4388693,7.98204 5.8960078,7.167815 -1.7453305,5.05522 -9.0568653,2.000891 0.175609,10.25947 z"
             id="path1-33"
             style="stroke-width:1.36226" /><path
             d="m 22.828293,63.799845 c -4.102725,-1.404765 -8.51414,-1.144082 -12.409392,0.760946 -3.8952534,1.904988 -6.8113122,5.214877 -8.226839,9.317602 -1.41552677,4.102726 -1.1440824,8.51414 0.7609461,12.409393 1.8943621,3.895253 5.2148765,6.82725 9.3176019,8.226839 1.745331,0.601316 3.527987,0.883345 5.273454,0.883345 6.742109,0 13.063823,-4.225193 15.378579,-10.951363 C 35.822764,75.97497 31.315583,66.720849 22.854707,63.79471 Z m 7.42324,19.725559 C 27.84101,90.538876 20.172971,94.274471 13.170126,91.84801 9.7910338,90.677309 7.039945,88.266758 5.4755229,85.036698 3.9111009,81.806638 3.676928,78.172122 4.8476017,74.766466 c 1.1706874,-3.379092 3.59719,-6.130181 6.8113113,-7.694603 1.867798,-0.899311 3.868553,-1.362262 5.885382,-1.362262 1.45803,0 2.958698,0.244785 4.38485,0.734341 6.986908,2.410523 10.733129,10.067936 8.322606,17.081408 z"
             id="path2"
             style="stroke-width:1.36226" /><path
             d="m 82.954466,46.484129 v -4.52312 l 6.976282,-4.347524 -3.23006,-8.732374 -8.131072,1.255829 -2.926684,-3.458921 2.575493,-7.81707 -8.093746,-4.618886 -5.422485,6.199383 -4.469855,-0.776912 -3.06509,-7.641474 -9.152769,1.676264 -0.175609,8.226838 -3.921817,2.277567 -7.247644,-3.895253 -5.954585,7.167816 5.150986,6.417481 -1.527232,4.262383 -8.067181,1.686889 0.05321,9.317602 8.067181,1.607061 1.564422,4.251757 -5.08192,6.470746 6.023788,7.109375 7.205142,-3.964456 3.948381,2.245553 0.260751,8.216077 9.168706,1.564422 2.995888,-7.668038 4.453916,-0.803517 5.491552,6.146119 8.051243,-4.698715 -2.655321,-7.790506 2.90012,-3.485485 8.14701,1.186653 3.134293,-8.774876 -7.045485,-4.262383 z m 2.032768,9.929666 -7.42324,-1.064267 -4.906324,5.911946 2.410523,7.109375 -4.086787,2.36802 -5.002091,-5.587455 -7.561646,1.362262 -2.724524,7.013472 -4.645587,-0.803517 -0.244785,-7.508381 -6.672906,-3.815425 -6.593078,3.62389 -3.049151,-3.607815 4.645587,-5.896008 -2.671261,-7.205142 -7.354037,-1.458029 -0.0266,-4.725416 7.343412,-1.527232 2.602193,-7.231706 -4.698715,-5.842879 3.022588,-3.639829 6.619777,3.544062 6.646342,-3.852614 0.149004,-7.519007 4.645587,-0.846088 2.793728,6.976282 7.572272,1.293087 4.943513,-5.65121 4.102726,2.341457 -2.341457,7.135939 4.970078,5.858818 7.412615,-1.160048 1.649563,4.443291 -6.390918,3.964456 0.04257,7.668038 6.417482,3.911191 -1.607061,4.443291 z"
             id="path3"
             style="stroke-width:1.36226" /><path
             d="m 63.4891,30.818112 c -7.519007,-2.697961 -15.830851,1.239876 -18.529493,8.748312 -2.69796,7.534946 1.223911,15.841749 8.748313,18.539029 1.607061,0.558745 3.240686,0.85674 4.906324,0.85674 2.112596,0 4.209118,-0.478917 6.183445,-1.404765 3.501423,-1.649563 6.146119,-4.565758 7.439178,-8.216077 2.697961,-7.519007 -1.223911,-15.83085 -8.748312,-18.529492 z m 6.119554,17.586807 c -1.048301,2.926684 -3.187421,5.300018 -6.007849,6.619777 -2.820292,1.335658 -5.981149,1.484594 -8.923908,0.436347 -6.060978,-2.1818 -9.237774,-8.88127 -7.072049,-14.931758 1.718767,-4.783857 6.225948,-7.737241 11.004492,-7.737241 1.309052,0 2.628757,0.202214 3.937755,0.681131 6.050352,2.181799 9.221835,8.881269 7.05611,14.942655 z"
             id="path4-8"
             style="stroke-width:1.36226" /></g><rect
           style="fill:#ffffff;fill-opacity:0.944233;stroke:none;stroke-width:1.30092;stroke-dasharray:none;stroke-opacity:1"
           id="rect12"
           width="87.820709"
           height="18.025358"
           x="149.53258"
           y="40.985321" /><text
           xml:space="preserve"
           style="font-style:normal;font-variant:normal;font-weight:bold;font-stretch:semi-condensed;font-size:12.8503px;font-family:'DejaVu Sans';-inkscape-font-specification:'DejaVu Sans, Bold Semi-Condensed';font-variant-ligatures:normal;font-variant-caps:normal;font-variant-numeric:normal;font-variant-east-asian:normal;fill:#000000;fill-opacity:1;stroke-width:1.30092"
           x="151.92159"
           y="54.590977"
           id="text2"
           inkscape:label="NeotomaART"><tspan
             sodipodi:role="line"
             id="tspan2"
             style="font-style:normal;font-variant:normal;font-weight:bold;font-stretch:semi-condensed;font-size:12.8503px;font-family:'DejaVu Sans';-inkscape-font-specification:'DejaVu Sans, Bold Semi-Condensed';font-variant-ligatures:normal;font-variant-caps:normal;font-variant-numeric:normal;font-variant-east-asian:normal;fill:#000000;fill-opacity:1;stroke:none;stroke-width:1.30092;stroke-opacity:1"
             x="151.92159"
             y="54.590977">NeotomaART</tspan></text></g></g></g></svg>
